# xmcd CD database file
# Copyright (C) 1993-1998 Ti Kan
#
# Track frame offsets:
#	183
#	17373
#	34135
#	50288
#	67490
#	83753
#	100918
#	117020
#	132398
#	149693
#
# Disc length: 2230 seconds
#
# Revision: 2
# Processed by: cddbd v1.4b41PL1 Copyright (c) Steve Scherf et al.
# Submitted via: CDValet v3.31 - Copyright (c) 1997 Greg Leichner
#
DISCID=8a08b40a
DTITLE=Chiclete Com Banana - Chiclete Com Banana
DYEAR=1900
DGENRE=
TTITLE0=Zum Zum Pra Que
TTITLE1=Cara Caramba Sou Camaleão
TTITLE2=Maria Raiô
TTITLE3=Tudo No Crediário
TTITLE4=Como Uma Onda
TTITLE5=Amar Você Não Dói
TTITLE6=Savassi
TTITLE7=Na Onda Gostosa do Quimbundo
TTITLE8=Banana Metal
TTITLE9=Vem
EXTD=
EXTT0=
EXTT1=
EXTT2=
EXTT3=
EXTT4=
EXTT5=
EXTT6=
EXTT7=
EXTT8=
EXTT9=
PLAYORDER=
